# xmcd CD database file
#
# Track frame offsets:
#	150
#	16327
#	41190
#	59743
#	90865
#	112952
#	133513
#
# Disc length: 1955 seconds
#
# Revision: 1
# Processed by: cddbd v1.5.2PL0 Copyright (c) Steve Scherf et al.
# Submitted via: CDex 1.70beta3
#
DISCID=5507a107
DTITLE=猫騙 - WARP
DYEAR=2008
DGENRE=J-Loud
TTITLE0=KINDNESS
TTITLE1=WARP
TTITLE2=Shame Shame
TTITLE3=世界の果てに
TTITLE4=虚空
TTITLE5=HELPLESS GOD YOU
TTITLE6=BLACK BUTTERFLY
EXTD=YEAR: 2008
EXTT0=
EXTT1=
EXTT2=
EXTT3=
EXTT4=
EXTT5=
EXTT6=
PLAYORDER=
